<?xml version="1.0" encoding="utf-8"?>
<!-- Generator: Adobe Illustrator 15.0.0, SVG Export Plug-In . SVG Version: 6.00 Build 0)  -->
<!DOCTYPE svg PUBLIC "-//W3C//DTD SVG 1.1//EN" "http://www.w3.org/Graphics/SVG/1.1/DTD/svg11.dtd">
<svg version="1.1" id="Layer_1" xmlns="http://www.w3.org/2000/svg" xmlns:xlink="http://www.w3.org/1999/xlink" x="0px" y="0px"
	 width="140px" height="113.39px" viewBox="0 0 140 113.39" enable-background="new 0 0 140 113.39" xml:space="preserve">
<rect fill="none" width="140" height="113.39"/>
<g>
	<g>
		<path fill="#FFFFFF" d="M90.939,20.708c0.519-0.383,1.173-0.524,1.78-0.549c0.62-0.021,1.23,0.068,1.817,0.225
			c1.178,0.303,2.285,0.873,3.225,1.667c0.937,0.792,1.701,1.844,2.077,3.061c0.364,1.208,0.396,2.557-0.037,3.732l-0.001,0.003
			l-0.126-0.494c0.518,0.551,1.017,1.106,1.507,1.679c0.244,0.287,0.485,0.577,0.721,0.876c0.244,0.277,0.529,0.729,0.547,1.202
			c0.047,0.951-0.493,1.681-1.048,2.223c-0.578,0.548-1.264,0.941-1.979,1.224l-0.003,0.002l0.118-0.352l0.611,0.727l0.001,0.003
			l0.068,0.276l-0.031,0.051c-0.215,0.345-0.37,0.715-0.482,1.093c-0.062,0.187-0.1,0.381-0.137,0.567
			c-0.131,0.416-0.4,0.458-0.581,0.574c-0.794,0.345-1.572,0.548-2.36,0.767l-1.182,0.279c-0.197,0.042-0.394,0.092-0.592,0.122
			l-0.296,0.051l-0.148,0.025l-0.074,0.012l-0.037,0.006l-0.009,0.001c0.195-0.035,0.052-0.009,0.094-0.016l-0.004,0.001
			l-0.018,0.006c-0.069-0.006-0.228,0.172-0.432,0.477c-0.192,0.29-0.383,0.638-0.577,0.983c-0.765,1.408-1.688,2.804-2.769,4.024
			c-1.078,1.229-2.302,2.311-3.618,3.243l0.068-0.113l0,0c0.213,0.642-0.001,1.109-0.107,1.625c-0.116,0.509-0.21,1.023-0.287,1.541
			c-0.153,1.036-0.232,2.085-0.259,3.139c-0.027,1.053,0.003,2.109,0.069,3.165c0.037,0.527,0.079,1.055,0.135,1.582l0.084,0.79
			l0.022,0.198l0.005,0.049l0.002,0.024l0.002,0.139l-0.001,0.012l-0.005,0.05c0,0.02-0.033,0.152-0.07,0.221
			c-0.104,0.2-0.166,0.223-0.22,0.276c-0.066,0.059-0.114,0.084-0.162,0.112c-0.105,0.064-0.181,0.088-0.269,0.126
			c-1.221,0.371-2.258,0.366-3.369,0.419c-1.109,0.008-2.152,0.035-3.351-0.198c-0.077-0.017-0.167-0.045-0.266-0.083L78.9,61.514
			l-0.042-0.021l-0.01-0.005l-0.072-0.048l-0.01-0.008c-0.037-0.034-0.026-0.014-0.103-0.092c-0.058-0.06-0.129-0.15-0.157-0.2
			L78.432,61c-0.037-0.086-0.072-0.173-0.095-0.251c-0.097-0.317-0.138-0.602-0.173-0.886c-0.065-0.565-0.083-1.112-0.09-1.66
			c-0.01-1.093,0.033-2.168,0.106-3.255l0.284,0.448l-0.006-0.002l-1.891-1.026l0.222-0.026l-0.007,0.004
			c-0.654,0.741-1.54,1.203-2.432,1.535c-0.899,0.334-1.84,0.51-2.779,0.603c-1.88,0.148-3.77-0.051-5.524-0.701l0.18-0.053
			l-0.009,0.005c-0.707,1.235-1.057,2.996-0.636,4.451l0.042,0.134l0.019,0.092l0.001,0.01l0.002,0.02l0.004,0.046
			c0.001,0.092-0.029,0.217-0.065,0.279c-0.142,0.24-0.288,0.291-0.408,0.36c-0.245,0.116-0.462,0.168-0.681,0.218
			c-0.435,0.094-0.856,0.143-1.279,0.183c-0.844,0.078-1.681,0.108-2.518,0.124c-0.431-0.006-0.799,0.041-1.32-0.03
			c-0.251-0.039-0.553-0.157-0.768-0.374c-0.216-0.213-0.334-0.466-0.412-0.697c-0.275-0.935-0.206-1.777-0.198-2.617
			c0.024-0.826,0.074-1.642-0.187-2.296c-0.247-0.655-0.854-1.123-1.557-1.46l-0.216-0.104l-0.013-0.237l0-0.002
			c-0.056-0.323-0.13-0.662-0.219-0.968c-0.073-0.286-0.262-0.64-0.309-0.624c-0.007,0.011,0.078,0.052,0.112,0.049l-0.221,0.025
			l-0.496,0.08c-0.334,0.062-0.668,0.135-1,0.218c-1.325,0.336-2.628,0.764-3.851,1.343c-2.448,1.115-4.611,2.918-5.681,5.395
			L44.344,59.4l-0.007,0.012c-0.096,0.16-0.205,0.321-0.389,0.479c-0.149,0.145-0.553,0.348-0.938,0.162
			c-0.343-0.185-0.431-0.433-0.503-0.611c-0.064-0.188-0.099-0.364-0.115-0.53c-0.066-0.664,0.023-1.26,0.112-1.853
			c0.19-1.181,0.521-2.309,0.889-3.418c0.717-2.242,1.778-4.357,3.057-6.317c2.565-3.921,6.067-7.223,10.125-9.579
			c4.061-2.366,8.65-3.745,13.296-4.305c1.163-0.142,2.332-0.234,3.501-0.282c1.202-0.044,2.361,0.054,3.461,0.005
			c1.098-0.034,2.052-0.35,2.895-1.018c0.846-0.65,1.583-1.517,2.283-2.403l-0.026,0.036c0.177-0.254,0.42-0.48,0.704-0.625
			c0.283-0.137,0.573-0.196,0.844-0.219c0.54-0.032,1.015,0.059,1.458,0.158c0.437,0.095,0.896,0.243,1.087,0.216
			c0.228-0.024,0.46-0.171,0.65-0.432c0.382-0.517,0.543-1.325,0.395-1.974c-0.134-0.66-0.676-1.12-1.508-1.214l0.069-0.013
			l-0.021,0.004c-0.035,0.008-0.061,0.028-0.168,0.023c0.003,0.004-0.092-0.008-0.162-0.08c-0.069-0.076-0.072-0.124-0.074-0.182
			c0.016-0.151,0.039-0.131,0.052-0.168c0.062-0.091,0.097-0.114,0.139-0.157c0.08-0.07,0.159-0.129,0.239-0.185
			c0.161-0.11,0.326-0.205,0.499-0.285c0.344-0.163,0.709-0.283,1.089-0.353c0.756-0.145,1.59-0.059,2.302,0.303
			c0.728,0.382,1.232,0.845,1.807,1.294c0.276,0.226,0.548,0.454,0.815,0.657c0.255,0.197,0.55,0.384,0.678,0.382
			c0.118,0.121,0.677-0.636,0.816-1.142c0.181-0.553,0.103-1.118-0.195-1.644c-0.3-0.524-0.756-0.998-1.208-1.516
			c-0.234-0.251-0.486-0.495-0.746-0.74l-0.406-0.365c-0.07-0.064-0.143-0.125-0.218-0.21c-0.038-0.047-0.078-0.087-0.12-0.185
			c-0.019-0.053-0.042-0.13-0.011-0.232C90.823,20.793,90.889,20.74,90.939,20.708z M91.2,21.128
			c0.042,0.013,0.103-0.188,0.066-0.191c-0.008-0.016,0.012,0.013,0.032,0.032c0.045,0.045,0.108,0.099,0.174,0.148
			c0.138,0.095,0.283,0.195,0.438,0.284c0.309,0.179,0.623,0.365,0.932,0.57c0.628,0.394,1.198,0.942,1.583,1.667
			c0.403,0.707,0.529,1.668,0.238,2.465c-0.14,0.405-0.333,0.745-0.568,1.074c-0.123,0.167-0.262,0.339-0.476,0.495
			c-0.204,0.158-0.541,0.277-0.84,0.234c-0.588-0.097-0.875-0.383-1.176-0.609c-0.288-0.241-0.548-0.482-0.811-0.718
			c-0.517-0.451-1.063-0.967-1.585-1.265c-0.547-0.301-1.186-0.428-1.832-0.359c-0.322,0.035-0.645,0.112-0.953,0.23
			c-0.153,0.06-0.305,0.125-0.446,0.203c-0.07,0.038-0.138,0.08-0.196,0.121c-0.024,0.016-0.059,0.05-0.047,0.032
			c0.001-0.018,0.008,0.019,0.025-0.109c-0.005-0.046-0.008-0.083-0.064-0.155c-0.061-0.066-0.147-0.069-0.133-0.068
			c-0.062-0.003-0.045,0.004-0.038,0l0.003-0.002l-0.002,0.002l0.071-0.015c0.461-0.094,0.984-0.052,1.476,0.18
			c0.485,0.25,0.858,0.715,1.033,1.216c0.345,1.009,0.191,2.087-0.429,2.981c-0.313,0.437-0.842,0.842-1.488,0.902
			c-0.683,0.023-1.049-0.176-1.458-0.245c-0.802-0.202-1.566-0.219-1.779,0.19l-0.005,0.01l-0.021,0.026
			c-0.735,0.921-1.506,1.838-2.499,2.602c-0.493,0.38-1.061,0.705-1.675,0.917c-0.615,0.21-1.255,0.298-1.862,0.324
			c-1.213,0.048-2.366-0.053-3.477-0.031c-1.142,0.03-2.283,0.104-3.418,0.225c-4.536,0.481-9.01,1.757-12.99,3.998
			c-3.988,2.215-7.421,5.421-9.928,9.24c-1.249,1.909-2.305,3.958-2.98,6.132c-0.33,1.093-0.619,2.204-0.765,3.312
			c-0.071,0.549-0.091,1.118-0.011,1.604c0.019,0.122,0.053,0.229,0.087,0.312c0.028,0.087,0.096,0.111,0.017,0.056
			c-0.114-0.056-0.202,0.016-0.145-0.031c0.034-0.035,0.089-0.116,0.135-0.208l-0.028,0.059c0.502-1.406,1.33-2.71,2.389-3.776
			c1.072-1.054,2.329-1.893,3.663-2.53c1.342-0.621,2.753-1.065,4.198-1.306c0.362-0.061,0.725-0.111,1.092-0.149l0.558-0.045
			l0.309-0.009c0.212-0.008,0.473,0.099,0.602,0.223c0.27,0.25,0.343,0.479,0.42,0.683c0.07,0.208,0.108,0.402,0.141,0.594
			c0.063,0.385,0.082,0.75,0.075,1.133v0.005l-0.229-0.341c0.78,0.362,1.614,0.954,1.978,1.879c0.356,0.912,0.277,1.811,0.266,2.63
			c-0.025,0.811-0.065,1.663,0.135,2.332c0.12,0.338,0.236,0.474,0.54,0.529c0.303,0.05,0.769,0.023,1.167,0.028
			c0.824-0.008,1.648-0.03,2.459-0.099c0.404-0.035,0.809-0.08,1.188-0.158c0.186-0.039,0.375-0.089,0.505-0.151
			c0.062-0.023,0.11-0.08,0.069-0.026c-0.011,0.017-0.035,0.088-0.018,0.131c0.002,0.003-0.001-0.021-0.002-0.031l-0.002-0.019
			l-0.001-0.01l0-0.005c0.008,0.035-0.018-0.086,0.017,0.078l-0.05-0.163c-0.243-0.876-0.241-1.77-0.106-2.633
			c0.071-0.432,0.178-0.859,0.337-1.276c0.168-0.4,0.343-0.875,0.838-1.091l0.009-0.012l0.031-0.041l0.149-0.012
			c1.836-0.143,3.593-0.138,5.33-0.307c0.868-0.071,1.725-0.188,2.574-0.341c0.846-0.167,1.685-0.365,2.501-0.696l0.006-0.005
			l0.076-0.069l0.146,0.042l2.051,0.596l0.006,0.002l0.297,0.114l-0.013,0.333c-0.041,1.055-0.052,2.125-0.012,3.176
			c0.022,0.524,0.055,1.05,0.128,1.548c0.037,0.247,0.084,0.493,0.151,0.688c0.016,0.051,0.035,0.086,0.05,0.124l0.021,0.037
			c0.005,0.008-0.019-0.033-0.038-0.038c-0.04-0.021,0.035,0.03,0.046,0.041l0.01,0.008c0.016,0.011-0.119-0.08-0.062-0.042h0.001
			h0.004l0.007,0.002c0.027,0.007,0.064,0.022,0.119,0.032c0.91,0.172,2.031,0.166,3.061,0.141c1.021-0.043,2.162-0.103,2.995-0.372
			c0.035-0.017,0.087-0.035,0.095-0.044c0.011-0.005,0.022-0.012,0.004-0.001c-0.002,0.01-0.011-0.008-0.086,0.128
			c-0.023,0.04-0.028,0.147-0.024,0.134l0.005-0.05l0.001-0.012c-0.001-0.115,0.002,0.149,0.001,0.12l0-0.006l-0.003-0.025
			l-0.006-0.05l-0.023-0.202c-0.034-0.269-0.063-0.539-0.086-0.81c-0.053-0.54-0.09-1.082-0.123-1.625
			c-0.058-1.086-0.079-2.175-0.04-3.266c0.038-1.09,0.13-2.182,0.301-3.267c0.086-0.542,0.189-1.083,0.317-1.618
			c0.129-0.531,0.226-1.091,0.712-1.486v0l0.006-0.045l0.062-0.068c1.072-1.176,2.086-2.378,2.993-3.643
			c0.92-1.262,1.68-2.588,2.417-3.989c0.19-0.353,0.373-0.709,0.612-1.089c0.117-0.189,0.259-0.387,0.458-0.586
			c0.098-0.099,0.216-0.202,0.367-0.292c0.12-0.09,0.452-0.2,0.479-0.193l0.019-0.003l0.107-0.02l0.009,0l0.037-0.002l0.074-0.004
			l0.149-0.008l0.297-0.017c0.197-0.016,0.397-0.012,0.595-0.018l1.186-0.037c0.781-0.031,1.596-0.053,2.295-0.271
			c0.163-0.045,0.332-0.166,0.312-0.154l0.141-0.595c0.091-0.393,0.153-0.789,0.166-1.207l0.037,0.326l-0.002-0.002l-0.317-0.895
			l-0.106-0.299l0.226-0.053l0.003-0.001c0.65-0.299,1.257-0.699,1.732-1.206c0.469-0.495,0.822-1.146,0.745-1.712
			c-0.035-0.285-0.176-0.49-0.428-0.759c-0.24-0.273-0.49-0.542-0.745-0.808c-0.508-0.53-1.034-1.053-1.564-1.558l-0.199-0.19
			l0.073-0.305l0.001-0.002c0.242-1.062,0.39-2.146,0.105-3.196c-0.262-1.044-0.869-2.003-1.678-2.766
			c-0.809-0.763-1.811-1.344-2.885-1.678c-1.06-0.297-2.294-0.405-3.177,0.201L91.2,21.128z"/>
	</g>
	<g>
		<path fill="#FFFFFF" d="M94.319,39.732l-2.309,0.273c-0.764,0.079-1.664,0.175-2.521-0.135c-0.827-0.304-1.46-0.77-2.109-1.201
			l-1.907-1.327l0.262-0.419l2.021,1.136c0.67,0.365,1.351,0.749,2.004,0.913c0.636,0.167,1.321,0.039,2.072-0.113l2.264-0.49
			L94.319,39.732z"/>
	</g>
	<g>
		<path fill="#FFFFFF" d="M101.462,34.176c-0.348,0.491-0.851,0.987-1.476,1.261c-0.621,0.278-1.296,0.386-1.94,0.369
			c-1.293-0.03-2.501-0.404-3.586-0.993l0.072-0.238c1.215,0.094,2.383,0.257,3.501,0.209c0.557-0.029,1.091-0.098,1.593-0.26
			c0.505-0.155,0.97-0.41,1.514-0.721L101.462,34.176z"/>
	</g>
	<g>
		<path fill="#FFFFFF" d="M86.259,48.913c0.08-0.375,0.137-0.685,0.152-1.024c0.028-0.341,0.009-0.687-0.022-1.033
			c-0.067-0.693-0.243-1.384-0.478-2.059c-0.472-1.354-1.173-2.638-1.917-3.89l0.161-0.105c0.844,1.195,1.654,2.43,2.257,3.798
			c0.3,0.683,0.546,1.4,0.682,2.155c0.065,0.377,0.116,0.761,0.116,1.15c0.014,0.392-0.03,0.808-0.076,1.151L86.259,48.913z"/>
	</g>
	<g>
		<path fill="#FFFFFF" d="M77.269,54.799c-0.542-0.555-1.094-1.093-1.626-1.684c-0.527-0.575-1.04-1.311-1.16-2.142
			c-0.133-0.812-0.076-1.594-0.034-2.37l0.169-2.321l0.194,0.009l-0.031,2.323c0.002,0.769,0,1.55,0.163,2.264
			c0.153,0.717,0.601,1.286,1.142,1.817c0.538,0.531,1.127,1.041,1.701,1.562L77.269,54.799z"/>
	</g>
	<g>
		<path fill="#FFFFFF" d="M65.436,55.754c0.387-0.702,0.857-1.364,1.184-2.033c0.335-0.665,0.408-1.408,0.316-2.174
			c-0.198-1.531-0.737-3.042-1.255-4.53l0.165-0.064c0.607,1.465,1.237,2.927,1.545,4.53c0.149,0.795,0.12,1.697-0.22,2.479
			c-0.326,0.777-0.745,1.436-1.08,2.143L65.436,55.754z"/>
	</g>
	<g>
		<path fill="#FFFFFF" d="M55.991,53.285c0.024-0.633-0.166-1.317-0.287-2.023c-0.129-0.706-0.216-1.445-0.139-2.183
			c0.071-0.737,0.32-1.455,0.703-2.074c0.38-0.624,0.885-1.149,1.428-1.61l0.119,0.133c-1.012,0.957-1.759,2.223-1.777,3.584
			c-0.022,0.675,0.102,1.347,0.273,2.019c0.16,0.673,0.414,1.353,0.448,2.14L55.991,53.285z"/>
	</g>
	<circle fill="#FFFFFF" cx="90.488" cy="31.379" r="1.046"/>
	<path fill="#FFFFFF" d="M44.613,51.458c-2.51,5.19,2.216-6.01,2.39-10.605c0.175-1.106,1.645,1.136,7.275-2.118
		c3.477-2.009,3.918-4.598,4.16-5.635c0.12-0.515,0.099-0.471,0.577-0.282c2.341,0.928,4.714,1.075,6.694,0.71
		c1.98-0.364,4.836-2.496,5.358-3.197c0.524-0.7,0.466-0.85,1.098-0.367c1.698,1.296,3.541,2.459,7.816,2.709
		C72.454,35.138,54.317,31.379,44.613,51.458z"/>
</g>
<g>
	<path fill="#FFFFFF" d="M28.653,77.399c0,3.52-1.328,5.588-3.613,6.268c0.742,0.989,2.779,4.169,3.335,9.262
		c0.03,0.31-0.031,0.37-0.434,0.402h-0.585c-0.772-5.96-2.841-8.8-3.397-9.479c-0.215,0.031-0.463,0.031-0.679,0.031h-2.438v9.108
		c0,0.34,0,0.34-1.019,0.34V72.059c0,0,0-0.338,0.339-0.338h3.334C27.388,71.721,28.653,74.344,28.653,77.399z M23.435,72.676
		h-2.592v10.22h2.438c2.965,0,4.322-2.13,4.322-5.496C27.604,74.837,26.646,72.676,23.435,72.676z"/>
	<path fill="#FFFFFF" d="M39.674,81.969h-7.934v11.022c0,0.34-0.032,0.34-1.02,0.34V72.059c0-0.338,0.031-0.338,1.02-0.338v9.261
		h7.934v-8.923c0-0.31,0-0.338,1.019-0.338v21.271c0,0.34-0.03,0.34-1.019,0.34V81.969z"/>
	<path fill="#FFFFFF" d="M43.718,72.306c0-0.585,0.032-0.585,1.02-0.585v21.271c0,0.34-0.032,0.34-1.02,0.34V72.306z"/>
	<path fill="#FFFFFF" d="M53.289,84.502c-0.123-0.217-3.396-7.781-4.569-10.437c0.03,2.625,0.062,11.146,0.062,11.331v7.595
		c0,0.34,0,0.34-1.019,0.34V72.059c0-0.248,0.092-0.338,0.339-0.338h0.617l3.889,8.673c0.094,0.31,3.583,8.307,4.571,10.529V72.059
		c0-0.338,0-0.338,1.019-0.338v21.271c0,0.247-0.154,0.34-0.34,0.34h-0.617L53.289,84.502z"/>
	<path fill="#FFFFFF" d="M66.594,71.411c3.983,0,5.465,2.871,5.465,10.959c0,8.181-1.729,11.269-5.805,11.269
		c-3.92,0-5.618-2.716-5.618-11.269C60.637,74.467,62.581,71.411,66.594,71.411z M66.254,92.621c3.335,0,4.755-2.716,4.755-10.342
		c0-7.38-1.328-9.85-4.446-9.85c-3.272,0-4.847,2.718-4.847,10.344C61.716,89.997,63.044,92.621,66.254,92.621z"/>
	<path fill="#FFFFFF" d="M83.203,71.721c3.921,0,5.989,2.777,5.989,9.631c0,10.312-2.964,11.979-6.206,11.979h-3.642V72.213
		c0-0.278,0.122-0.493,0.74-0.493H83.203z M83.08,72.707h-2.717v19.635h2.624c2.625,0,5.156-1.358,5.156-11.021
		C88.143,75.301,86.599,72.707,83.08,72.707z"/>
	<path fill="#FFFFFF" d="M91.63,72.306c0-0.585,0.031-0.585,1.019-0.585v21.271c0,0.34-0.03,0.34-1.019,0.34V72.306z"/>
	<path fill="#FFFFFF" d="M101.202,84.502c-0.125-0.217-3.396-7.781-4.57-10.437c0.032,2.625,0.063,11.146,0.063,11.331v7.595
		c0,0.34,0,0.34-1.021,0.34V72.059c0-0.248,0.093-0.338,0.34-0.338h0.617l3.891,8.673c0.093,0.31,3.582,8.307,4.57,10.529V72.059
		c0-0.338,0-0.338,1.019-0.338v21.271c0,0.247-0.155,0.34-0.34,0.34h-0.617L101.202,84.502z"/>
	<path fill="#FFFFFF" d="M114.508,71.411c3.98,0,5.464,2.871,5.464,10.959c0,8.181-1.729,11.269-5.804,11.269
		c-3.922,0-5.62-2.716-5.62-11.269C108.548,74.467,110.495,71.411,114.508,71.411z M114.168,92.621
		c3.334,0,4.754-2.716,4.754-10.342c0-7.38-1.327-9.85-4.446-9.85c-3.272,0-4.847,2.718-4.847,10.344
		C109.629,89.997,110.957,92.621,114.168,92.621z"/>
</g>
</svg>
